<svg xmlns="http://www.w3.org/2000/svg" viewBox="0 0 48 48"><circle cx="24" cy="24" r="22" fill="#25D366"/><path fill="#FFF" d="M33.6 28.3c-.6-.3-3.6-1.8-4.2-2-.6-.2-1-.3-1.4.3-.4.6-1.6 2-1.9 2.4-.3.4-.6.5-1.2.2-.6-.3-2.4-.9-4.6-2.8-1.7-1.5-2.8-3.3-3.1-3.8-.3-.6 0-.8.3-1.1.3-.3.6-.6.8-.9.3-.3.4-.6.6-.9.2-.3.1-.6-.1-.9-.2-.3-1.4-3.4-1.9-4.6-.5-1.2-1-1-1.4-1-.4 0-.8-.1-1.2-.1s-1.2.2-1.9.9c-.7.7-2.6 2.5-2.6 6.1s2.7 7.1 3 7.5c.3.4 5.2 8 12.6 11.2 1.8.8 3.2 1.2 4.3 1.6 1.8.6 3.4.5 4.7.3 1.4-.2 4.4-1.8 5-3.5s.6-3.2.4-3.5c-.2-.3-.7-.5-1.3-.8z"/></svg>